<?xml version="1.0" standalone="no"?>
<!DOCTYPE svg PUBLIC "-//W3C//DTD SVG 20010904//EN"
 "http://www.w3.org/TR/2001/REC-SVG-20010904/DTD/svg10.dtd">
<svg version="1.0" xmlns="http://www.w3.org/2000/svg"
 width="816.000000pt" height="816.000000pt" viewBox="0 0 816.000000 816.000000"
 preserveAspectRatio="xMidYMid meet">
<metadata>
Created by potrace 1.14, written by Peter Selinger 2001-2017
</metadata>
<g transform="translate(0.000000,816.000000) scale(0.100000,-0.100000)"
fill="#000000" stroke="none">
<path d="M2600 6663 c0 -4 -26 -9 -58 -9 -84 -2 -227 -23 -248 -37 -6 -3 -27
-7 -47 -9 -21 -1 -37 -6 -37 -10 0 -4 -13 -8 -28 -8 -16 0 -32 -3 -36 -7 -4
-5 -11 -8 -14 -8 -18 -1 -108 -29 -116 -36 -6 -5 -18 -9 -28 -9 -10 0 -26 -4
-36 -9 -27 -15 -89 -41 -96 -41 -3 0 -29 -11 -58 -25 -28 -14 -57 -25 -64 -25
-7 0 -14 -3 -16 -7 -1 -5 -41 -28 -88 -52 -47 -24 -118 -66 -159 -92 -41 -27
-78 -49 -82 -49 -5 0 -9 -4 -9 -8 0 -5 -12 -15 -27 -23 -25 -13 -46 -27 -77
-54 -6 -5 -41 -35 -76 -65 -63 -52 -216 -204 -272 -268 -15 -17 -61 -78 -103
-134 -41 -57 -81 -111 -89 -120 -8 -9 -12 -18 -10 -21 2 -2 -2 -10 -11 -17 -8
-7 -15 -19 -15 -26 0 -8 -3 -14 -7 -14 -5 0 -13 -10 -19 -23 -6 -12 -33 -65
-61 -117 -28 -52 -67 -133 -87 -180 -35 -80 -118 -316 -130 -370 -3 -14 -10
-45 -16 -70 -6 -25 -12 -56 -15 -70 -3 -14 -8 -41 -12 -60 -4 -19 -8 -42 -9
-50 -22 -142 -22 -144 -30 -280 -8 -140 -9 -242 0 -380 7 -121 11 -158 42
-348 3 -18 19 -83 35 -145 17 -61 31 -118 31 -124 1 -7 6 -13 11 -13 6 0 8 -3
4 -6 -14 -15 102 -287 189 -444 37 -65 151 -241 163 -250 4 -3 18 -21 31 -40
13 -19 29 -40 35 -46 5 -6 30 -35 55 -64 56 -66 155 -165 218 -218 131 -111
131 -112 140 -112 4 -1 23 -14 42 -30 19 -17 40 -30 47 -30 7 0 13 -4 13 -8 0
-9 135 -92 150 -92 6 0 10 -4 10 -10 0 -5 9 -10 20 -10 11 0 20 -4 20 -10 0
-5 9 -10 20 -10 11 0 20 -4 20 -10 0 -5 9 -10 20 -10 11 0 20 -4 20 -10 0 -5
12 -10 26 -10 14 0 23 -4 19 -10 -3 -5 3 -10 15 -10 11 0 28 -4 38 -9 33 -17
99 -42 120 -47 8 -1 21 -6 30 -10 9 -4 28 -9 42 -11 13 -2 28 -10 32 -16 4 -7
8 -9 8 -5 0 3 24 0 54 -8 30 -8 66 -15 80 -16 14 -1 26 -5 26 -9 0 -6 31 -11
155 -25 28 -4 56 -11 64 -18 12 -9 13 -8 6 3 -6 11 -5 12 6 5 15 -9 35 -12
137 -16 34 -1 62 -6 62 -11 0 -4 9 -3 20 3 11 6 20 7 20 2 0 -4 73 -7 163 -6
89 1 162 2 162 3 0 1 36 4 79 7 76 4 141 11 141 14 0 1 25 4 55 7 30 3 58 9
61 15 4 6 9 5 12 -3 4 -10 6 -10 6 -1 1 7 16 12 39 12 21 0 43 5 50 12 7 7 12
9 12 6 0 -8 113 23 212 57 40 14 78 27 83 29 47 15 256 115 278 134 9 8 17 12
17 8 0 -4 10 2 22 14 12 11 28 20 35 20 7 0 13 5 13 10 0 6 7 10 15 10 8 0 15
5 15 10 0 6 7 10 15 10 8 0 15 4 15 9 0 5 8 12 18 15 9 3 31 18 48 33 33 29
106 90 133 109 12 10 28 0 87 -50 93 -80 113 -96 120 -96 2 0 10 -5 17 -10 47
-40 61 -50 70 -50 6 0 25 -11 44 -26 18 -14 33 -21 33 -17 0 4 4 3 8 -3 17
-25 315 -150 332 -139 4 3 10 0 12 -5 2 -6 16 -13 32 -16 16 -3 37 -9 46 -14
10 -5 20 -7 23 -4 3 3 12 2 19 -2 7 -5 24 -10 38 -12 14 -1 40 -8 59 -14 19
-6 53 -12 75 -13 23 -2 41 -4 41 -5 0 -4 43 -10 97 -14 32 -2 62 -7 67 -10 5
-4 13 -2 16 4 5 8 11 7 21 -1 18 -14 554 -14 554 1 0 3 19 6 43 7 23 1 60 4
82 7 22 3 62 8 90 11 27 3 52 9 55 13 3 4 16 8 30 9 63 5 80 8 80 13 0 3 14 7
32 8 18 2 35 6 38 10 3 4 14 8 25 10 11 2 27 6 35 9 8 3 26 8 40 10 13 2 30 9
37 15 7 6 13 7 13 3 0 -4 6 -2 13 4 8 6 17 8 20 4 4 -3 7 -1 7 5 0 7 12 12 26
12 16 0 23 4 18 12 -4 7 -3 8 5 4 6 -4 23 0 36 8 14 9 25 14 25 12 0 -5 84 33
125 56 11 7 40 23 65 36 55 29 170 102 188 119 7 7 16 13 20 13 4 0 22 13 40
28 17 15 44 36 58 47 80 63 274 270 274 293 0 6 3 12 7 14 13 5 58 80 95 158
44 92 73 185 96 310 13 70 5 323 -12 395 -25 108 -59 209 -77 231 -6 8 -8 14
-4 14 5 0 2 8 -7 18 -13 16 -35 61 -35 72 0 5 -35 49 -70 86 -12 13 -19 24
-16 24 3 0 -41 47 -99 105 -58 58 -108 105 -111 105 -3 0 -37 22 -74 50 -37
27 -73 53 -78 57 -25 18 -71 45 -87 50 -10 3 -18 9 -18 14 0 5 -4 9 -9 9 -4 0
-41 18 -81 40 -40 22 -79 40 -86 40 -8 0 -14 5 -14 10 0 6 -12 10 -26 10 -14
0 -23 4 -19 10 3 6 2 10 -4 10 -6 0 -35 11 -65 25 -77 35 -108 47 -131 52 -10
2 -22 7 -25 11 -3 4 -24 14 -47 22 -47 15 -54 25 -22 35 11 4 41 16 65 26 24
11 45 20 46 19 3 0 185 92 258 131 25 13 47 27 48 32 2 4 10 7 18 7 8 0 14 5
14 10 0 6 6 10 14 10 8 0 28 14 46 30 18 17 35 30 40 30 4 0 16 8 28 18 12 9
30 24 42 33 27 21 140 128 140 133 0 2 18 23 40 47 22 24 46 56 53 72 6 15 14
27 17 27 3 0 21 30 39 68 32 63 38 77 56 127 48 131 55 374 15 520 -38 141
-110 272 -210 379 -228 248 -559 412 -970 480 -149 25 -218 29 -465 30 -205 1
-292 -4 -375 -19 -14 -2 -43 -7 -65 -10 -22 -3 -83 -17 -135 -31 -52 -13 -104
-27 -115 -29 -18 -4 -38 -11 -90 -31 -11 -4 -22 -8 -25 -9 -3 -1 -23 -9 -45
-19 -22 -10 -44 -19 -50 -20 -17 -3 -208 -107 -265 -144 -61 -40 -176 -127
-201 -151 -8 -9 -28 -27 -45 -41 -27 -24 -65 -65 -136 -148 -17 -19 -34 -29
-42 -26 -8 3 -45 36 -83 73 -143 140 -386 331 -422 331 -6 0 -11 3 -11 8 0 4
-25 18 -55 32 -30 14 -55 28 -55 33 0 4 -8 7 -18 7 -10 0 -22 4 -27 8 -6 5
-37 19 -70 31 -33 13 -69 27 -80 32 -11 5 -29 11 -40 13 -11 2 -40 11 -65 19
-25 8 -65 20 -90 27 -25 7 -58 16 -74 21 -16 5 -42 9 -57 9 -15 0 -30 4 -33 8
-3 5 -26 9 -53 11 -26 1 -50 5 -53 9 -3 4 -16 8 -30 9 -14 1 -61 5 -105 8
-117 10 -305 11 -305 2 0 -4 -9 -3 -20 3 -11 6 -20 7 -20 3z m500 -248 c59 -4
108 -12 112 -19 6 -8 8 -8 8 0 0 9 12 9 43 3 23 -5 65 -14 92 -20 68 -15 184
-48 215 -61 14 -6 36 -15 50 -21 14 -5 33 -13 42 -18 10 -5 25 -9 33 -9 8 0
15 -3 15 -7 0 -5 25 -19 55 -33 30 -14 55 -28 55 -32 0 -5 6 -8 13 -8 7 0 22
-8 33 -17 11 -10 32 -25 46 -33 49 -28 161 -122 220 -185 71 -74 119 -132 124
-147 3 -10 10 -18 15 -18 5 0 3 -13 -6 -30 -9 -16 -13 -30 -9 -30 4 0 2 -6 -3
-12 -35 -44 -73 -241 -73 -378 0 -221 65 -438 177 -590 65 -88 79 -104 135
-159 101 -99 126 -121 137 -121 6 0 11 -4 11 -10 0 -5 6 -10 14 -10 8 0 16 -4
18 -9 4 -11 154 -111 167 -111 5 0 11 -3 13 -7 4 -10 86 -53 100 -53 5 0 16
-7 25 -15 8 -9 28 -19 44 -22 16 -3 29 -9 29 -14 0 -5 9 -9 20 -9 11 0 20 -4
20 -10 0 -5 9 -10 19 -10 11 0 23 -4 26 -10 3 -5 14 -10 23 -10 9 0 26 -7 36
-15 19 -14 19 -15 0 -21 -10 -3 -29 -10 -41 -15 -13 -5 -33 -13 -45 -18 -13
-5 -43 -17 -68 -26 -94 -35 -202 -86 -212 -100 -4 -5 -8 -7 -8 -2 0 4 -22 -4
-50 -18 -27 -14 -51 -24 -53 -23 -1 2 -13 -7 -27 -19 -13 -13 -28 -23 -32 -23
-12 0 -132 -81 -136 -92 -2 -4 -9 -8 -16 -8 -7 0 -25 -13 -41 -30 -16 -16 -30
-28 -33 -25 -7 7 -201 -194 -230 -239 -15 -22 -29 -43 -32 -46 -10 -10 -30
-46 -61 -110 -17 -36 -35 -72 -39 -81 -4 -8 -18 -55 -31 -105 -20 -76 -23
-112 -23 -244 1 -133 5 -169 27 -253 24 -89 89 -241 134 -310 18 -28 17 -29
-2 -42 -11 -8 -24 -18 -30 -22 -5 -5 -26 -20 -45 -33 -19 -13 -44 -32 -54 -42
-11 -10 -23 -18 -27 -18 -5 0 -27 -13 -51 -29 -24 -16 -53 -32 -65 -35 -13 -4
-23 -12 -23 -18 0 -6 -3 -9 -6 -5 -4 3 -28 -5 -55 -19 -27 -13 -49 -21 -49
-17 0 4 -5 2 -12 -5 -7 -7 -20 -12 -29 -12 -10 0 -19 -4 -21 -10 -1 -5 -15
-11 -30 -12 -16 -1 -28 -5 -28 -8 0 -5 -100 -31 -138 -35 -9 -1 -24 -5 -33 -9
-9 -4 -29 -8 -45 -10 -16 -2 -29 -5 -29 -6 0 -1 -13 -3 -30 -5 -16 -2 -55 -6
-85 -10 -90 -11 -440 -12 -440 -2 0 5 -8 3 -17 -4 -11 -10 -14 -10 -9 -2 5 10
-5 13 -41 14 -26 1 -56 1 -65 0 -10 -1 -18 2 -18 6 0 5 -17 10 -39 11 -45 3
-78 9 -89 16 -5 3 -25 6 -45 8 -20 1 -33 6 -31 10 3 4 -2 8 -11 8 -27 0 -165
42 -160 49 2 4 -11 8 -28 9 -18 2 -33 7 -35 12 -2 6 -9 10 -16 10 -13 0 -177
79 -186 89 -9 10 -64 42 -82 48 -10 3 -18 9 -18 14 0 5 -6 9 -14 9 -8 0 -16 4
-18 8 -1 5 -23 22 -48 39 -25 17 -65 50 -90 72 -24 23 -48 41 -53 41 -4 0 -5
4 -2 10 3 6 -1 10 -9 10 -9 0 -16 3 -16 8 0 4 -29 38 -65 77 -36 38 -65 74
-65 78 0 4 -10 18 -22 31 -21 21 -101 144 -103 156 0 3 -8 16 -17 30 -9 14
-18 32 -20 40 -2 8 -6 17 -9 20 -37 33 -164 413 -193 575 -2 17 -7 39 -10 51
-2 12 -7 45 -11 74 -4 29 -9 62 -11 74 -11 59 -17 207 -18 441 -1 227 3 321
20 475 2 19 6 62 9 95 4 33 8 62 10 66 3 3 7 24 10 45 2 21 7 50 10 64 28 141
40 189 65 275 35 116 35 114 44 140 5 11 10 27 13 35 4 8 7 21 9 29 1 8 9 28
18 45 8 17 36 76 62 131 114 239 260 432 440 581 63 52 140 104 153 104 6 0
11 3 11 8 0 4 10 12 23 18 12 6 49 25 82 42 150 75 304 127 450 152 28 4 61
10 75 13 14 3 63 8 109 11 46 3 85 7 87 8 5 5 114 2 234 -7z m2930 -181 c103
-2 178 -14 285 -48 28 -8 54 -15 59 -15 5 0 12 -3 15 -8 3 -4 33 -21 65 -38
190 -96 330 -277 366 -475 12 -61 16 -232 6 -248 -2 -4 -7 -29 -10 -55 -8 -56
-52 -185 -72 -208 -8 -8 -14 -20 -14 -25 0 -10 -60 -101 -93 -142 -55 -66
-200 -202 -216 -202 -5 0 -11 -4 -13 -8 -1 -5 -25 -23 -53 -42 -27 -18 -52
-36 -55 -39 -6 -7 -33 -22 -91 -53 -35 -18 -44 -19 -67 -8 -15 7 -37 17 -49
21 -13 5 -33 13 -45 19 -13 5 -30 11 -38 12 -8 2 -18 7 -21 11 -3 4 -16 9 -27
10 -12 1 -22 5 -22 9 0 4 -9 8 -20 8 -11 0 -20 5 -20 10 0 6 -9 10 -20 10 -11
0 -20 5 -20 10 0 6 -9 10 -21 10 -11 0 -33 8 -47 18 -15 10 -49 29 -77 42 -27
14 -52 27 -55 30 -3 4 -20 12 -37 19 -18 8 -33 17 -33 22 0 5 -5 9 -10 9 -28
0 -197 129 -272 206 -54 57 -128 161 -128 181 0 7 -5 13 -12 13 -6 0 -8 3 -5
7 4 3 3 11 -2 17 -8 10 -23 59 -38 121 -19 84 -2 268 32 342 8 17 15 34 15 38
0 3 18 32 39 63 59 86 124 149 221 214 60 41 205 104 260 114 19 3 42 8 50 11
21 8 52 12 144 18 43 2 81 7 84 10 3 3 8 2 11 -2 3 -5 26 -8 51 -9z m-360
-2325 c50 -15 73 -20 88 -21 6 -1 12 -4 12 -8 0 -3 23 -13 51 -20 27 -8 52
-18 55 -22 3 -4 16 -8 29 -8 13 0 25 -4 27 -10 2 -5 15 -11 31 -12 15 -1 27
-6 27 -10 0 -4 6 -8 14 -8 7 0 43 -13 79 -30 37 -16 73 -30 81 -30 8 0 16 -4
18 -8 3 -9 134 -72 148 -72 6 0 10 -4 10 -9 0 -5 8 -11 18 -14 61 -21 218
-131 299 -211 143 -142 213 -298 219 -492 8 -228 -64 -414 -216 -564 -69 -68
-107 -97 -205 -157 -39 -24 -130 -65 -154 -69 -14 -3 -29 -8 -35 -12 -6 -3
-15 -7 -21 -9 -5 -1 -21 -4 -35 -8 -14 -3 -40 -8 -59 -11 -18 -3 -43 -8 -55
-11 -30 -7 -326 -11 -326 -4 0 3 -10 6 -22 7 -13 0 -41 4 -63 7 -22 3 -61 9
-87 13 -27 4 -48 11 -48 15 0 5 -9 9 -20 9 -17 0 -45 11 -170 68 -91 42 -310
231 -310 269 0 7 -4 13 -9 13 -11 0 -98 174 -105 210 -3 14 -10 43 -15 65 -27
112 -29 259 -7 377 27 143 110 304 215 418 22 25 41 48 41 52 0 5 5 8 11 8 7
0 22 10 34 23 39 40 83 77 90 77 4 0 15 8 24 18 9 9 25 22 36 29 76 46 182
113 190 120 6 5 26 16 45 26 19 9 35 17 35 17 0 0 16 -5 35 -11z"/>
</g>
</svg>
