<svg id="Layer_1" data-name="Layer 1" xmlns="http://www.w3.org/2000/svg" viewBox="0 0 1080 1080"><defs><style>.cls-1{fill:#b32b32;}.cls-2{fill:#257cbf;}.cls-3{fill:#fff;}</style></defs><path class="cls-1" d="M546,30.05c10.72,5.85,14.95,14.71,14.11,27-.79,11.52,0,23.13-.21,34.7-.21,13.25-8.7,22.23-20.38,21.92-11.32-.3-19.18-9-19.37-21.93-.17-11.57.58-23.18-.21-34.69-.85-12.27,3.36-21.13,14.11-27Z"/><path class="cls-1" d="M182.49,448.3c-6.94,0-13.9.26-20.82-.06-11.83-.55-20.22-9.26-19.95-20.3.25-10.66,8.45-19,19.9-19.32q21.81-.56,43.63,0c11.82.32,20.24,9.27,20,20.27-.26,10.62-8.5,18.84-19.92,19.34C197.71,448.57,190.09,448.29,182.49,448.3Z"/><path class="cls-1" d="M896.8,408.51c6.94,0,13.89-.19,20.82.05,12,.42,20.54,8.62,20.67,19.62s-8.31,19.74-20.2,20c-14.21.35-28.43.31-42.64,0-12.05-.25-20.53-8.58-20.67-19.59-.14-11.36,8.58-19.74,21.19-20.1C882.91,408.35,889.86,408.51,896.8,408.51Z"/><path class="cls-1" d="M213.33,219.17c1.79.52,4.89.84,7.39,2.24,13.54,7.57,27.16,15,40.29,23.28,9.1,5.71,11.38,17.17,6.37,26.17s-16.08,13-25.61,8c-14-7.4-27.77-15.32-41.11-23.84-8.21-5.24-10-13.88-6.8-22.85C196.82,223.92,203.43,219.88,213.33,219.17Z"/><path class="cls-1" d="M355.19,81c2.69,2.09,9.28,5.19,12.82,10.37,8,11.69,14.71,24.28,21.47,36.76,5.82,10.72,2.77,21.94-6.81,27.57s-21.23,2.61-27.42-7.57c-7.56-12.41-15-24.93-21.69-37.81C326.24,96.23,335.92,80.62,355.19,81Z"/><path class="cls-1" d="M271.82,597.41c-4,5.23-7,11.9-12.12,15.42-12,8.16-24.82,15.08-37.61,22-10.18,5.49-21.24,2.29-26.76-6.95-5.67-9.48-2.86-21.28,7.26-27.49,12.38-7.59,24.92-15,37.76-21.75C254.46,571.18,270,580.57,271.82,597.41Z"/><path class="cls-1" d="M749.33,101.62c-.64,2.15-1,5.24-2.4,7.75-7.59,13.53-15.06,27.16-23.33,40.27-5.69,9-17.4,11.22-26.22,6.07-9-5.27-12.79-16.15-7.72-25.74,7.24-13.71,15.07-27.14,23.27-40.3,5.16-8.29,13.5-10.53,22.61-7.64C744.39,84.84,748.42,91.76,749.33,101.62Z"/><path class="cls-1" d="M829.49,281.06c-8.7-.67-15.25-4.79-18.15-13.05-2.85-8.1-1.91-16.73,5.49-21.5a456.54,456.54,0,0,1,45.46-26c8.25-4.06,16.23.15,21.68,7.45,5.16,6.9,5.6,18.94-1.32,23.62C866.9,262.2,850,271.1,833.43,280.62,832.39,281.22,830.84,280.93,829.49,281.06Z"/><path class="cls-1" d="M867.08,637.73c-1.74-.46-4.53-.64-6.74-1.87-14.12-7.89-28.39-15.57-42-24.22C809.38,606,807.61,594,813,585.26c5.27-8.48,15.85-12.14,25.06-7.3,14,7.37,27.77,15.29,41.14,23.77,8.23,5.23,10,13.86,6.93,22.84C883.31,632.88,876.66,636.86,867.08,637.73Z"/><path class="cls-2" d="M519.37,194.59c-25.76,1.76-49.56,8.31-72.65,18-5.05,2.12-10.89,4.07-16.14,3.6-9.54-.87-15.62-7.13-16.85-16.86-1.29-10.23,3.49-18.14,12.88-21.14,24.52-7.85,49-16.7,74.21-21.4a223.41,223.41,0,0,1,104.48,5c28.78,8.41,51.52,24.24,60.88,53.92,11.76,2,23.45,2.72,34.42,6,40.76,12,65.62,48.61,61.9,90.76-.55,6.15,1.81,8.88,6,12.12,39.33,30.73,56,83.84,40.41,128.13-5.93,16.84-13.58,27.61-31.82,45.33,3.62,14.48,8.76,28,10.1,41.83,3.51,36.29-15.69,69.19-48.56,85.16-6.06,2.94-7.8,6-7.79,12.62.05,34.27-14.07,60.71-44.57,77.7-2.68,1.5-5.67,4-6.66,6.71q-11.19,30.74-21.51,61.77c-2.1,6.3-1,11.39,5.7,15.83,10.57,6.95,15.44,18,15.58,30.71.22,19.91.14,39.83,0,59.74-.07,12.69-5.39,22.84-14.71,31.44a16.53,16.53,0,0,0-4.93,10.59c-.49,18.9-.09,37.83-.27,56.74-.33,35.08-26.07,60.73-61.28,60.89q-58.25.29-116.49,0c-35.15-.17-60.88-25.92-61.17-61-.16-18.92.23-37.84-.26-56.75a16.61,16.61,0,0,0-5-10.54c-9.29-8.62-14.61-18.76-14.65-31.47q-.12-29.37,0-58.74c.05-13.09,4.77-24.57,15.7-31.66,7-4.54,7.51-9.69,5.42-15.85-7.33-21.58-12.14-44.71-23.3-64.17-25.7-44.78-53.85-88.22-82.36-131.31-24-36.24-41.09-74.79-47.65-117.87q-12.24-80.35,20.83-154.55c5.49-12.37,16.59-17.16,27.43-12.31,10.27,4.61,14.35,15.9,9.1,27.85-12.85,29.2-20.07,59.62-20.72,91.53-1,51.36,13.54,98,42.39,140.43,23.1,34,46.35,68,68,102.92,23.5,38,41.63,78.41,47.7,123.92h56.24ZM690.52,638.11a8.74,8.74,0,0,0-1.57-.61c-1.64-.16-3.29-.28-4.94-.39-36.8-2.41-63.48-18.28-76.16-54.83-3.09-8.92-9.77-16.94-16.06-24.31-7.11-8.33-8.8-18.93-2.42-27.1,6.66-8.53,18.9-11.07,27.35-3.48,8.7,7.82,16,17.44,22.8,27,3.75,5.26,5.78,11.93,7.76,18.22,4.28,13.62,14.08,20.28,27.3,23.15,15.2,3.29,29.79.59,43.77-5.22,22.35-9.29,34.37-31.91,28.06-55.18-2.59-9.57-8.47-18.6-14.29-26.86-9.3-13.17-7.62-25.46,6.6-33.28,23.59-13,37.38-32.34,36-59.47-1.49-28.54-14.6-51.46-40.24-65.65-15.28-8.46-18-13.86-13.33-31.33,9.66-36-20.59-68-57.23-60.76-16.83,3.35-25.76,14.71-31.81,29.76-4.88,12.15-15.65,16.83-26.43,12.51-10.49-4.2-14.66-15.3-10.21-27.51,5.45-14.93,13.26-28.53,26.45-37.7,7.34-5.11,7-10.17,2.36-15.5-4.47-5.16-9.58-11-15.64-13.28-15.27-5.68-31.23-9.5-48-14.38V424.6c24.75,1.19,43.39-7.24,54.55-29.61,3.26-6.51,6.28-13.49,11-18.84,7.81-8.82,16.2-17.49,25.71-24.32,8-5.72,19.07-2.08,24.71,5.64s5.77,19.83-2,25.29C661.64,391.83,655,405,647.79,418c-14.17,25.53-35.55,40.58-64.42,44.84-7.47,1.11-15,1.8-22.93,2.74V790.37H615c6.46-23.3,12.69-45.8,18.23-65.79-12.25-8.75-24.5-16.91-36-26.05-3.55-2.83-6.14-8.07-7.13-12.65-1.93-9,1.88-16.27,10.07-20.77,7.92-4.35,17.53-2.71,24.36,4.75,7,7.64,14.7,13.25,25.5,13.62C673.81,684.3,692.26,663.91,690.52,638.11Zm-70.9,292.95H460.33v10.56c0,16.26-.27,32.52.16,48.77.31,11.4,8.28,19.4,19.78,19.48q59.73.42,119.45,0c11.5-.08,19.54-8.07,19.78-19.48C619.92,970.86,619.62,951.31,619.62,931.06Zm19.53-99.61H441.22V890H639.15Z"/><path class="cls-2" d="M379.41,248.44a19.67,19.67,0,1,1-19.12-20A19.45,19.45,0,0,1,379.41,248.44Z"/><path class="cls-3" d="M619.62,931.06c0,20.25.3,39.8-.12,59.33-.24,11.41-8.28,19.4-19.78,19.48q-59.72.42-119.45,0c-11.5-.08-19.47-8.08-19.78-19.48-.43-16.25-.14-32.51-.16-48.77V931.06Z"/><path class="cls-3" d="M639.15,831.45V890H441.22V831.45Z"/></svg>