<?xml version="1.0" encoding="utf-8"?>
<!-- Generator: Adobe Illustrator 26.0.2, SVG Export Plug-In . SVG Version: 6.00 Build 0)  -->
<svg version="1.1" id="Layer_1" xmlns="http://www.w3.org/2000/svg" xmlns:xlink="http://www.w3.org/1999/xlink" x="0px" y="0px"
	 viewBox="0 0 512 512" style="enable-background:new 0 0 512 512;" xml:space="preserve">
<style type="text/css">
	.st0{fill:#257CBF;}
</style>
<path class="st0" d="M256,64C150,64,64,150,64,256s86,192,192,192c17.7,0,32,14.3,32,32s-14.3,32-32,32C114.6,512,0,397.4,0,256
	S114.6,0,256,0s256,114.6,256,256v32c0,53-43,96-96,96c-29.3,0-55.6-13.2-73.2-33.9C320,371.1,289.5,384,256,384
	c-70.7,0-128-57.3-128-128s57.3-128,128-128c27.9,0,53.7,8.9,74.7,24.1c5.7-5,13.1-8.1,21.3-8.1c17.7,0,32,14.3,32,32v80v32
	c0,17.7,14.3,32,32,32s32-14.3,32-32v-32C448,150,362,64,256,64z M320,256c0-35.3-28.7-64-64-64s-64,28.7-64,64s28.7,64,64,64
	S320,291.3,320,256z"/>
</svg>
