<svg id="Layer_1" data-name="Layer 1" xmlns="http://www.w3.org/2000/svg" viewBox="0 0 1080 1080"><defs><style>.cls-1{fill:#257cbf;}.cls-2{fill:#b32b32;}</style></defs><path class="cls-1" d="M38.93,477.33c2.19-10.45,3.08-21.4,6.85-31.24,7.65-20,17-39.29,25.32-59,1.75-4.16,3.52-9.13,2.88-13.37-7.39-48.64,14.21-89.21,59.46-109.37,6.12-2.72,5.82-6.92,6.41-11.58,6.85-54.4,41-95.21,91.38-109.17a120.5,120.5,0,0,1,66.59.23c4.66,1.34,7.94,1.8,11.77-2.82C371.45,66.12,464,51.08,545.86,102.29c1.07.66,2.25,1.15,3.76,1.92,2-1.75,4-3.38,5.87-5.09,46.34-42,115.54-33.86,151.34,17.46,2.12,3,6.93,6,10.45,6,108-1.39,197.55,70.2,219.39,176.22,1.36,6.57,3.81,9,10.15,10.37C1004,322,1037.76,382,1019.06,437.71c-2.06,6.15-1.81,10.63,1.42,16.26,31.29,54.49,26.49,123-11.44,173.11a48.51,48.51,0,0,0-8,16.29q-23.06,86.28-99,133c-1.39.85-2.82,1.64-4.19,2.51a23.43,23.43,0,0,0-2.13,1.88c3.29,4.71,6.67,9.36,9.84,14.15,25.27,38.3,37.82,81.25,45.36,125.9,2.65,15.73,4.45,31.64,5.71,47.55,1.92,24.2-12.24,39.21-36.33,39.35-15.33.09-30.66.16-46,0-18.18-.23-30.79-9.53-34.69-27-10-45.06-39.37-71.84-80.69-88.27-24.15-9.6-48.6-18.87-71.68-30.7-40.17-20.58-60.81-54.68-63-99.84a25,25,0,0,0-.53-3.57c-20.69-4.65-40.59-9.36-60.63-13.33-2.52-.49-6.24,2.47-8.67,4.65-56.88,50.79-140.32,55-200.85,9.34a177.26,177.26,0,0,1-28.05-27.06c-8.13-9.62-14.39-20.81-20.59-30-22.92,1.57-45.57,4.92-68.12,4.35C139.49,703.76,53.1,624.45,41,527.79c-.4-3.16-1.35-6.24-2-9.35Zm914.74,197a30.44,30.44,0,0,0-4,.78c-61,26.53-117.45,18.63-169.72-22.2-2.36-1.85-7.2-2.22-10.21-1.23-14.54,4.76-29.13,6.87-44.29,3.87-26.63-5.28-46.46-19.81-59-43.83-4.78-9.12-1.94-18.2,6.22-22.83s17.07-2,22.75,6.63c1.25,1.9,2.25,4,3.53,5.85,20.84,30.7,66.86,29,85-3.17,8.41-14.91,8.58-30.28,2-46.08-4.54-10.94-1.17-20,8-23.84s18.58-.07,22.45,11c3.59,10.31,6.43,21.25,7.26,32.1,1.66,21.36-6.68,40-19.56,56.52,40.36,38.25,111.16,38.36,157.17.93,49.11-39.94,57.52-107.44,33.47-150.16-8.35,5.57-16.47,11.53-25.16,16.52-3.71,2.13-9.59,4.31-12.7,2.79-5.27-2.57-11-7.28-13.12-12.49-3.07-7.65,1-14.66,8.63-18.55,13.48-6.84,24.18-16.5,31.18-30a66.68,66.68,0,0,0-14.14-79.74c-22.47-20.79-55.61-23.36-82.26-6.39-11.9,7.58-21.43,6.65-27.21-2.66-5.46-8.79-2.61-18.51,9-25.13,10.92-6.2,22.71-10.89,34.54-16.44.14-73-105.66-161.35-180.55-149.48.26,5.42,1.12,10.92.67,16.31-.74,8.88-6.11,14.52-14.9,15.57-8,1-14-3.06-17-10.47-1.28-3.21-1.1-7-1.46-10.57-3.42-34.19-28.82-59.59-62.23-62.18-32-2.49-61.72,19.41-69.38,51.36-1.28,5.35-1.29,11-2.15,16.45-1.57,10-9.07,16.46-17.94,15.57-9.18-.93-15.76-8.21-14.93-18.44.82-10,2.2-20.17,5.18-29.69,2.1-6.71,1-9.82-4.73-13.31-34.93-21.12-72.24-28-111.7-17.12-51.37,14.2-85,47.4-101,98.4-3.76,12-11.65,17-21.67,14.05-9.74-2.88-13.69-11.8-10.1-23.74,2.3-7.67,5.14-15.18,7.74-22.75-52.72-17.76-113.17,27.27-112.9,78.73.27.19.52.5.81.54,1.61.18,3.23.28,4.85.43,29.08,2.69,53,15.12,71,38.2,8,10.3,5.56,22.34-5.25,26.92-8.89,3.77-15.71.26-21.39-6.79-12.34-15.29-28.43-23.75-48-24.95a66.63,66.63,0,0,0-67,44.09c-10.37,29.23-.19,59.68,26.17,78.28,10.94,7.72,13.5,16.72,7.25,25.49-5.86,8.22-15.86,9.44-25.82,2-8.74-6.55-16.63-14.22-24.85-21.37-35.06,59.3-23.23,145.64,26.86,199.48,52.46,56.37,130.49,65,173.28,48.8-1.29-14-2.57-27.87-3.9-42.33-2.78-.42-5.94-.91-9.11-1.38-34.07-5-57.22-23.8-68.79-56.11-2.91-8.13-4.06-17.14-4.54-25.83A16.63,16.63,0,0,1,222,523c9.05-.55,16,6,17.15,16.29.33,2.91.53,5.84,1,8.74,3.51,23.71,22.89,41,46.88,42.2,5.73.29,8.45-1.55,10.59-7.26a280.62,280.62,0,0,1,14.93-32.8c3.5-6.64,10.12-9.32,17.57-7.46,7.26,1.81,12.55,6.6,12.4,14.37-.09,4.92-1.91,10.2-4.26,14.62-29.85,56.08-14.49,124.64,36.43,161.57a124.33,124.33,0,0,0,163.92-15.08c9-9.43,17.27-11.64,29.41-7.11,30,11.23,61.27,15.55,93.22,11.28,14.48-1.93,28.75-5.42,43.14-8.07,10.2-1.89,18.1,2.65,20.72,11.67,2.54,8.74-2.22,17.14-12.08,20.35a161,161,0,0,1-19.86,5.07c-11.7,2.2-23.5,3.94-35.38,5.89.15,33.64,14.38,58.81,43.33,74a485.65,485.65,0,0,0,61.65,26.84c54.32,19.57,93.55,53.17,108.37,111,.52,2,3,5,4.57,5,15.81.38,31.63.23,48.8.23-3-21.27-5.08-41.07-8.8-60.54-7.64-40-20.08-78.22-45.53-111.05-4.42-5.71-8.4-8.67-16.24-5.31-7.38,3.16-15.66,4.33-23.62,6C817.9,806,808.92,800.82,807,790.35c-1.77-9.71,4.9-16.13,16.94-19.86,18.88-5.85,38.25-11.28,55.74-20.19C912.09,733.8,936.06,708,953.67,674.31Z"/><path class="cls-2" d="M612.44,347c-5.79,24.34-11.65,48.67-17.38,73q-18.15,77.21-36.2,154.42c-3.05,13.06-9,19.22-18.69,19.31-10.06.09-16.29-6.57-19-20.07q-25.35-127.25-50.78-254.47a7.1,7.1,0,0,0-3.34-4.73c-4.39,21.61-8.94,43.19-13.14,64.84-6.73,34.72-6.63,34.74-41.49,34.74-34.37,0-68.74.09-103.1-.05-13.64-.06-21.45-7.84-20.34-19.61.95-10.15,8.34-16.13,20.88-16.18,31.91-.14,63.82-.05,95.74-.06h11.87c8-39.55,15.75-78.29,23.53-117q4.25-21.12,8.43-42.24c2.74-13.91,8.49-20,18.86-20,10,.07,15.95,6,18.58,19.16Q510.37,335.54,533.74,453c2.25,11.32,4.58,22.62,7.41,36.6,1.57-5.34,2.55-8.19,3.24-11.11,16.15-68.5,32.1-137,48.67-205.45,1.59-6.57,5.59-14.16,10.86-17.91,10-7.1,22.11-.31,26.08,13.44,9.44,32.61,19,65.2,27.69,98,2.4,9.06,6,12.82,15.56,11.78,8.67-.93,17.52-.4,26.28-.13,12.48.37,20,7.52,19.74,18.43-.2,10.59-7.33,17.17-19.5,17.33-16.83.22-33.66,0-50.5.07-10.14,0-16.38-4.81-19.16-14.55-5-17.47-10.1-34.91-15.16-52.35Z"/><path class="cls-2" d="M790.89,414c-5.95,0-11.92.27-17.85-.07-9.82-.57-16.65-7.22-17.34-16.37s5.32-18,14.79-18.66a284.87,284.87,0,0,1,41.93,0c9.55.72,15.31,9.41,14.65,18.69s-7.34,15.78-17.28,16.33C803.51,414.26,797.19,414,790.89,414Z"/></svg>